HIERARCHY
ROOT WildBoar_ROOTSHJnt
{
	OFFSET 0.000000 44.410820 68.815338
	CHANNELS 6 Xposition Yposition Zposition Xrotation Yrotation Zrotation
	JOINT WildBoar_Spine_01SHJnt
	{
		OFFSET -0.000000 -13.726324 -0.500702
		CHANNELS 3 Xrotation Yrotation Zrotation
		JOINT WildBoar_Spine_02SHJnt
		{
			OFFSET -0.000000 -13.721075 -0.511734
			CHANNELS 3 Xrotation Yrotation Zrotation
			JOINT WildBoar_Spine_03SHJnt
			{
				OFFSET -0.000000 -13.733017 -0.763184
				CHANNELS 3 Xrotation Yrotation Zrotation
				JOINT WildBoar_Spine_04SHJnt
				{
					OFFSET 0.000000 -13.726805 1.066475
					CHANNELS 3 Xrotation Yrotation Zrotation
					JOINT WildBoar_Spine_TopSHJnt
					{
						OFFSET 0.000000 -13.726805 0.709183
						CHANNELS 3 Xrotation Yrotation Zrotation
						JOINT WildBoar_l_Clavicle_01_01SHJnt
						{
							OFFSET 8.670297 0.000000 0.000000
							CHANNELS 3 Xrotation Yrotation Zrotation
							JOINT WildBoar_l_FrontLeg_HipSHJnt
							{
								OFFSET 3.164961 0.548840 -12.164703
								CHANNELS 3 Xrotation Yrotation Zrotation
								JOINT WildBoar_l_FrontLeg_Knee1SHJnt
								{
									OFFSET 0.316314 -0.817221 -32.444130
									CHANNELS 3 Xrotation Yrotation Zrotation
									JOINT WildBoar_l_FrontLeg_Knee2SHJnt
									{
										OFFSET 0.171660 1.067869 -17.603088
										CHANNELS 3 Xrotation Yrotation Zrotation
										JOINT WildBoar_l_FrontLeg_AnkleSHJnt
										{
											OFFSET 0.012912 -0.586981 -1.322436
											CHANNELS 3 Xrotation Yrotation Zrotation
											JOINT WildBoar_l_FrontLeg_BallSHJnt
											{
												OFFSET -0.004807 -3.825893 -5.280976
												CHANNELS 3 Xrotation Yrotation Zrotation
												JOINT WildBoar_l_FrontLeg_ToeSHJnt
												{
													OFFSET -0.006160 -4.905069 -0.000002
													CHANNELS 3 Xrotation Yrotation Zrotation
													End Site
													{
														OFFSET 4.905067 -0.006161 -0.000003
													}
												}
											}
										}
									}
								}
							}
						}
						JOINT WildBoar_r_Clavicle_01_01SHJnt
						{
							OFFSET -8.670297 0.000000 0.000000
							CHANNELS 3 Xrotation Yrotation Zrotation
							JOINT WildBoar_r_FrontLeg_HipSHJnt
							{
								OFFSET -3.164964 0.548840 -12.164703
								CHANNELS 3 Xrotation Yrotation Zrotation
								JOINT WildBoar_r_FrontLeg_Knee1SHJnt
								{
									OFFSET -0.316322 -0.817221 -32.444130
									CHANNELS 3 Xrotation Yrotation Zrotation
									JOINT WildBoar_r_FrontLeg_Knee2SHJnt
									{
										OFFSET -0.171665 1.067869 -17.603088
										CHANNELS 3 Xrotation Yrotation Zrotation
										JOINT WildBoar_r_FrontLeg_AnkleSHJnt
										{
											OFFSET -0.012913 -0.586981 -1.322436
											CHANNELS 3 Xrotation Yrotation Zrotation
											JOINT WildBoar_r_FrontLeg_BallSHJnt
											{
												OFFSET 0.004806 -3.825893 -5.280976
												CHANNELS 3 Xrotation Yrotation Zrotation
												JOINT WildBoar_r_FrontLeg_ToeSHJnt
												{
													OFFSET 0.006160 -4.905069 -0.000002
													CHANNELS 3 Xrotation Yrotation Zrotation
													End Site
													{
														OFFSET 4.905068 0.006161 -0.000002
													}
												}
											}
										}
									}
								}
							}
						}
						JOINT WildBoar_Neck_01SHJnt
						{
							OFFSET -0.000000 -12.476246 -2.105774
							CHANNELS 3 Xrotation Yrotation Zrotation
							JOINT WildBoar_Neck_02SHJnt
							{
								OFFSET 0.000000 -10.017231 1.165779
								CHANNELS 3 Xrotation Yrotation Zrotation
								JOINT WildBoar_Neck_TopSHJnt
								{
									OFFSET 0.000000 -9.610825 0.768044
									CHANNELS 3 Xrotation Yrotation Zrotation
									JOINT WildBoar_Head_JawSHJnt
									{
										OFFSET -0.000001 -11.273338 -4.973049
										CHANNELS 3 Xrotation Yrotation Zrotation
										JOINT WildBoar_Head_JawEndSHJnt
										{
											OFFSET -0.000002 -22.190353 -15.124695
											CHANNELS 3 Xrotation Yrotation Zrotation
											End Site
											{
												OFFSET -0.000002 -22.110291 -15.241497
											}
										}
									}
									JOINT WildBoar_Head_TopSHJnt
									{
										OFFSET 0.000002 -15.944977 17.523094
										CHANNELS 3 Xrotation Yrotation Zrotation
										JOINT WildBoar_l_Ear_01_01SHJnt
										{
											OFFSET 10.362524 11.406597 -2.807991
											CHANNELS 3 Xrotation Yrotation Zrotation
											JOINT WildBoar_l_Ear_01_02SHJnt
											{
												OFFSET 6.918999 -0.514683 5.827293
												CHANNELS 3 Xrotation Yrotation Zrotation
												JOINT WildBoar_l_Ear_01_03SHJnt
												{
													OFFSET 5.957382 0.355659 6.469810
													CHANNELS 3 Xrotation Yrotation Zrotation
													End Site
													{
														OFFSET 5.020468 -6.741234 -2.612671
													}
												}
											}
										}
										JOINT WildBoar_r_Ear_01_01SHJnt
										{
											OFFSET -10.362526 11.406597 -2.807991
											CHANNELS 3 Xrotation Yrotation Zrotation
											JOINT WildBoar_r_Ear_01_02SHJnt
											{
												OFFSET -6.918997 -0.514683 5.827293
												CHANNELS 3 Xrotation Yrotation Zrotation
												JOINT WildBoar_r_Ear_01_03SHJnt
												{
													OFFSET -5.957380 0.355659 6.469810
													CHANNELS 3 Xrotation Yrotation Zrotation
													End Site
													{
														OFFSET -5.020468 -6.741234 -2.612671
													}
												}
											}
										}
										JOINT WildBoar_Nose_01_01SHJnt
										{
											OFFSET 0.146534 -15.145607 -20.472496
											CHANNELS 3 Xrotation Yrotation Zrotation
											JOINT WildBoar_Nose_01_02SHJnt
											{
												OFFSET -0.000001 -9.738365 -5.125526
												CHANNELS 3 Xrotation Yrotation Zrotation
												End Site
												{
													OFFSET 0.000001 -6.131317 9.138596
												}
											}
										}
									}
								}
							}
						}
					}
				}
			}
		}
	}
	JOINT WildBoar_l_HindLeg_HipSHJnt
	{
		OFFSET 11.907801 0.071259 -9.892372
		CHANNELS 3 Xrotation Yrotation Zrotation
		JOINT WildBoar_l_HindLeg_Knee1SHJnt
		{
			OFFSET -1.208079 8.601734 -32.196701
			CHANNELS 3 Xrotation Yrotation Zrotation
			JOINT WildBoar_l_HindLeg_Knee2SHJnt
			{
				OFFSET 0.929813 -5.149776 -18.902822
				CHANNELS 3 Xrotation Yrotation Zrotation
				JOINT WildBoar_l_HindLeg_AnkleSHJnt
				{
					OFFSET -0.016349 -0.419094 -2.601883
					CHANNELS 3 Xrotation Yrotation Zrotation
					JOINT WildBoar_l_HindLeg_BallSHJnt
					{
						OFFSET -0.062816 -2.064716 -5.221140
						CHANNELS 3 Xrotation Yrotation Zrotation
						JOINT WildBoar_l_HindLeg_ToeSHJnt
						{
							OFFSET 0.563698 -5.159508 -0.000093
							CHANNELS 3 Xrotation Yrotation Zrotation
							End Site
							{
								OFFSET 5.159507 0.563698 0.000025
							}
						}
					}
				}
			}
		}
	}
	JOINT WildBoar_r_HindLeg_HipSHJnt
	{
		OFFSET -11.907801 0.071259 -9.892372
		CHANNELS 3 Xrotation Yrotation Zrotation
		JOINT WildBoar_r_HindLeg_Knee1SHJnt
		{
			OFFSET 1.208084 8.601734 -32.196701
			CHANNELS 3 Xrotation Yrotation Zrotation
			JOINT WildBoar_r_HindLeg_Knee2SHJnt
			{
				OFFSET -0.929811 -5.149776 -18.902822
				CHANNELS 3 Xrotation Yrotation Zrotation
				JOINT WildBoar_r_HindLeg_AnkleSHJnt
				{
					OFFSET 0.016349 -0.419094 -2.601883
					CHANNELS 3 Xrotation Yrotation Zrotation
					JOINT WildBoar_r_HindLeg_BallSHJnt
					{
						OFFSET 0.062817 -2.064716 -5.221139
						CHANNELS 3 Xrotation Yrotation Zrotation
						JOINT WildBoar_r_HindLeg_ToeSHJnt
						{
							OFFSET -0.563698 -5.159508 -0.000092
							CHANNELS 3 Xrotation Yrotation Zrotation
							End Site
							{
								OFFSET 5.159507 -0.563698 -0.000023
							}
						}
					}
				}
			}
		}
	}
	JOINT WildBoar_Tail_01_01SHJnt
	{
		OFFSET 0.000000 20.717888 9.172180
		CHANNELS 3 Xrotation Yrotation Zrotation
		JOINT WildBoar_Tail_01_02SHJnt
		{
			OFFSET -0.000000 5.092255 -8.034218
			CHANNELS 3 Xrotation Yrotation Zrotation
			JOINT WildBoar_Tail_01_03SHJnt
			{
				OFFSET -0.000000 -0.708420 -11.714390
				CHANNELS 3 Xrotation Yrotation Zrotation
				End Site
				{
					OFFSET -0.000000 11.707321 -0.816906
				}
			}
		}
	}
}
MOTION
Frames: 6
Frame Time: 0.040000
0.000000 44.410816 63.312714 0.015568 -2.046121 -4.697469 -3.185849 0.648224 1.211720 3.383502 1.136537 2.942654 1.135603 0.210864 0.744287 -1.116010 0.014053 0.314510 -0.415913 0.013116 -0.417081 0.000000 -0.000000 0.000000 10.365096 4.998839 2.738277 57.737283 0.259186 0.473093 29.841680 -12.027134 7.205127 13.871994 7.678753 -4.561016 0.000003 -0.000049 0.000000 -0.000002 -0.000000 0.000000 0.000000 -0.000000 0.000000 -28.255478 -5.891087 -8.313151 7.571024 -0.004671 -0.073615 -10.075956 -0.924779 9.523522 36.378315 4.600968 -4.608263 0.141092 0.008311 -0.005956 -0.000000 0.000000 -0.000000 -0.001313 -0.055115 -0.364646 -0.002600 -0.063088 -0.417752 -0.001655 -0.026729 -0.177351 -7.127652 -0.000000 0.000001 -0.000000 0.000000 -0.000000 -0.000000 -0.000000 0.000000 0.069602 0.232531 -0.042857 0.054693 0.233444 -0.057195 -0.000005 0.000010 0.000002 0.069604 -0.232528 0.042856 0.054688 -0.233445 0.057193 0.000003 0.000005 0.000008 4.912659 4.202677 8.500475 -0.000002 -0.000003 0.000006 -28.319411 4.543425 4.773930 -3.744349 -0.600575 -0.039892 6.011229 0.340018 1.707443 30.650228 -4.049728 1.623034 0.000036 -0.000322 -0.000001 0.000000 0.000000 0.000000 25.721113 -1.168259 5.707251 -12.399088 1.968781 0.281201 80.304494 -11.247265 4.672881 -15.007785 6.166168 -0.290491 0.000065 0.000611 0.000000 0.000000 -0.000000 -0.000000 -0.016112 1.145230 1.006282 0.004049 4.852253 -0.095410 0.041813 8.250601 -0.579728 
0.000000 44.410820 63.163506 0.006113 -0.970135 -4.811237 -1.499551 0.276611 2.212491 2.376273 0.579404 2.288856 0.167067 0.105161 0.096668 -2.090386 0.014152 -0.346892 0.992406 -0.000177 0.576809 -0.000000 0.000000 -0.000000 8.434559 5.102497 2.967837 66.411555 0.333739 0.512865 26.376345 -12.593800 7.140504 20.997234 7.886603 -5.207575 0.000002 -0.000048 0.000000 0.000000 0.000000 -0.000000 -0.000000 0.000000 -0.000000 -25.293049 -6.233599 -7.714626 -0.632711 -0.000046 0.006169 -13.910470 -2.428487 9.958611 40.048941 4.549778 -4.873227 0.193656 0.011352 -0.008178 0.000000 0.000000 0.000000 0.043281 -0.056187 -0.370858 0.084539 -0.064841 -0.424968 0.052757 -0.027427 -0.180357 -7.127650 -0.000000 0.000001 0.000002 0.000000 -0.000000 -0.000002 -0.000000 0.000000 0.349995 1.119499 -0.202503 0.269196 1.127021 -0.275322 -0.000004 0.000003 0.000000 0.350001 -1.119496 0.202500 0.269202 -1.127022 0.275320 0.000001 0.000003 0.000005 4.912664 4.202677 8.500475 -0.000002 -0.000004 0.000007 -29.190347 2.970863 4.290833 0.343554 0.055210 0.001693 0.578984 0.200243 1.058547 28.943763 -4.293230 1.684268 0.000035 -0.000322 0.000000 -0.000000 -0.000000 -0.000000 26.932056 -2.485575 6.435017 -12.879899 2.043499 0.300627 85.189862 -9.895733 4.279794 -12.542832 4.277998 -0.297125 0.000067 0.000611 0.000000 -0.000001 0.000000 0.000000 -0.008138 -0.500617 -0.439820 0.001425 2.887326 -0.056684 0.043265 8.391384 -0.589762 
0.000000 44.410816 63.436920 -0.003565 0.103009 -4.361754 -0.808070 -0.106341 3.813063 1.703783 -0.022456 0.805821 -0.360594 0.012184 -1.123476 -2.758929 0.056123 -1.525666 1.975317 -0.019378 2.341581 0.000000 0.000000 0.000000 5.116884 5.165437 3.347246 72.468833 0.388952 0.533744 23.758974 -12.571126 7.375501 20.841410 7.769130 -5.095429 0.000001 -0.000050 0.000000 0.000001 -0.000000 0.000000 0.000000 0.000000 -0.000000 -26.858780 -5.720007 -7.580309 12.779973 -0.013513 -0.123617 -25.271691 -2.681265 9.613653 39.845097 4.516767 -4.820921 0.000000 -0.000067 0.000000 0.000000 0.000000 -0.000000 0.219514 -0.052864 -0.345817 0.428699 -0.062983 -0.396770 0.267758 -0.026467 -0.168127 -7.127649 -0.000000 0.000001 0.000002 -0.000000 0.000000 -0.000000 -0.000000 -0.000000 1.680175 5.053884 -0.927199 1.325268 5.096848 -1.231274 -0.000006 0.000008 -0.000003 1.680177 -5.053880 0.927201 1.325271 -5.096850 1.231268 0.000005 0.000006 0.000004 4.912662 4.202677 8.500475 0.000000 -0.000004 0.000005 -25.439234 2.576236 3.053876 -6.263383 -1.002500 -0.088762 3.670754 0.659942 1.236001 26.873072 -4.111909 1.531115 0.000035 -0.000322 -0.000000 0.000000 -0.000000 0.000001 27.063431 -4.293278 7.056525 -18.865317 2.957404 0.594338 89.843707 -9.066499 3.781070 -10.737367 1.615306 -0.174083 0.000066 0.000609 0.000000 -0.000000 -0.000000 0.000000 -0.039919 -2.116603 -1.860631 0.000106 0.738363 -0.014485 0.037639 7.831419 -0.549893 
-0.000000 44.410820 63.962723 -0.011751 1.116273 -3.461202 -1.289329 -0.522054 4.778316 2.384400 -0.606792 -0.461851 -0.276047 -0.077249 -2.068905 -2.872439 0.085995 -2.386048 2.164106 -0.034832 3.623664 -0.000000 -0.000000 -0.000000 -2.370173 5.167689 4.188837 79.077984 0.451347 0.549744 20.376754 -12.664516 7.333250 22.626465 7.282633 -4.909177 0.000002 -0.000046 0.000000 0.000002 -0.000000 0.000000 -0.000000 -0.000000 -0.000000 -25.441447 -5.336125 -6.968730 23.864975 -0.047158 -0.226150 -33.758818 -2.496315 9.009327 36.363579 4.606335 -4.617063 0.000000 -0.000061 0.000000 0.000000 -0.000000 -0.000000 0.449867 -0.045324 -0.292967 0.877933 -0.056132 -0.336130 0.548648 -0.023438 -0.142370 -7.127649 -0.000000 0.000001 -0.000000 0.000000 -0.000000 -0.000000 0.000000 -0.000000 2.883880 8.359857 -1.585579 2.344946 8.433914 -2.031019 -0.000004 0.000009 -0.000004 2.883873 -8.359853 1.585581 2.344948 -8.433912 2.031017 0.000002 0.000003 0.000003 4.912661 4.202677 8.500475 0.000000 -0.000004 0.000005 -17.491220 2.774267 1.383418 -14.517519 -2.296644 -0.371490 9.243427 1.405267 1.430362 23.007122 -3.852450 1.349367 0.000035 -0.000322 0.000000 0.000000 0.000000 0.000000 25.425628 -6.492039 7.474189 -26.954028 4.131744 1.138935 92.383971 -4.405794 2.094352 -5.773491 -1.924272 0.152246 0.000067 0.000612 0.000001 0.000001 0.000001 0.000000 -0.102950 -3.585445 -3.155532 0.000360 -1.450794 0.028467 0.027043 6.645567 -0.465805 
0.000000 44.410816 64.598167 -0.018933 2.023434 -2.320784 -2.902137 -0.954893 4.548643 3.288178 -1.095204 -1.337652 0.467596 -0.174380 -2.307095 -2.321631 0.053586 -2.520450 1.388441 -0.041692 3.810869 0.000000 -0.000000 -0.000000 -11.114150 5.027614 5.293686 83.968051 0.498470 0.556894 17.819897 -13.081649 7.108057 25.684054 6.704937 -4.734977 -0.000000 -0.000053 0.000000 0.000003 -0.000000 0.000000 0.000000 -0.000000 -0.000000 -20.787672 -5.193590 -6.038861 29.691980 -0.072610 -0.276918 -38.562883 -2.194390 8.252398 29.916191 4.824188 -4.245282 0.000000 -0.000065 0.000000 -0.000000 0.000000 -0.000000 0.560155 -0.034376 -0.220848 1.092818 -0.043364 -0.252941 0.683088 -0.018078 -0.107292 -7.127650 -0.000000 0.000001 0.000002 0.000000 -0.000000 -0.000000 0.000000 -0.000000 3.028970 8.746256 -1.667168 2.472400 8.823842 -2.124696 -0.000007 0.000003 -0.000005 3.028967 -8.746252 1.667167 2.472408 -8.823835 2.124696 0.000004 0.000003 0.000003 4.912666 4.202677 8.500475 -0.000002 -0.000004 0.000005 -8.887898 2.641771 -0.279742 -20.985454 -3.272756 -0.721002 13.654190 2.005727 1.552780 16.431823 -3.776041 1.103329 0.000035 -0.000322 -0.000000 0.000000 0.000000 0.000000 21.752904 -8.776356 7.373251 -34.249536 5.113191 1.766935 97.060055 -2.609483 1.319234 0.963511 -5.476199 0.899648 0.000067 0.000610 0.000000 0.000000 -0.000000 0.000000 -0.181076 -4.815335 -4.244148 0.002156 -3.538265 0.069494 0.015408 5.022373 -0.351350 
-0.000000 44.410816 65.230125 -0.024691 2.778299 -1.103071 -5.070162 -1.330690 3.911367 4.799743 -1.498927 -1.851431 1.563027 -0.266159 -2.314399 -1.393088 -0.007580 -2.418724 0.062137 -0.044780 3.642981 -0.000000 -0.000000 -0.000000 -20.014123 4.727365 6.567996 85.393819 0.512307 0.558219 17.081379 -13.857989 6.791774 28.690322 6.205956 -4.580511 -0.000002 -0.000051 0.000000 -0.000000 -0.000000 0.000000 -0.000000 -0.000000 -0.000000 -12.319797 -5.214345 -4.877401 29.147381 -0.070011 -0.272285 -38.723235 -1.924618 7.492685 22.281827 5.084012 -3.827901 0.000000 -0.000068 0.000000 -0.000000 -0.000000 0.000000 0.524257 -0.021011 -0.135159 1.022962 -0.026392 -0.154394 0.639369 -0.011027 -0.065665 -7.127649 -0.000000 0.000001 0.000003 0.000000 -0.000000 0.000002 -0.000000 -0.000000 2.738912 8.008287 -1.519521 2.229637 8.075767 -1.944869 -0.000010 0.000005 -0.000003 2.738910 -8.008288 1.519518 2.229646 -8.075769 1.944865 0.000005 0.000006 0.000004 4.912658 4.202677 8.500475 0.000002 -0.000004 0.000005 -0.413476 2.151844 -1.646467 -23.904077 -3.698439 -0.914213 15.874335 2.352145 1.593239 8.542330 -3.778154 0.878619 0.000035 -0.000322 0.000000 -0.000000 -0.000000 -0.000000 15.385527 -10.723431 6.429160 -38.830517 5.684332 2.222747 97.444827 0.635572 0.195996 9.026720 -8.532769 2.089395 0.000067 0.000611 0.000002 -0.000000 0.000000 0.000000 -0.252874 -5.713130 -5.042193 0.005016 -5.397426 0.106190 0.005825 3.091091 -0.215897 
